<svg xmlns="http://www.w3.org/2000/svg" viewBox="0 0 120 48" width="120" height="48">
  <g fill="#111111" stroke="#111111" stroke-linecap="round" stroke-linejoin="round">
    <ellipse cx="12" cy="34" rx="5.8" ry="4.2" transform="rotate(-18 12 34)" />
    <line x1="17" y1="33" x2="17" y2="10" stroke-width="2.6" />
    <line x1="17" y1="13" x2="28" y2="17" stroke-width="4" />
    <line x1="17" y1="20" x2="28" y2="24" stroke-width="4" />

    <ellipse cx="40" cy="34" rx="5.8" ry="4.2" transform="rotate(-18 40 34)" />
    <line x1="45" y1="33" x2="45" y2="10" stroke-width="2.6" />
    <line x1="45" y1="13" x2="56" y2="17" stroke-width="4" />
    <line x1="45" y1="20" x2="56" y2="24" stroke-width="4" />

    <ellipse cx="70" cy="34" rx="5.8" ry="4.2" transform="rotate(-18 70 34)" />
    <line x1="75" y1="33" x2="75" y2="10" stroke-width="2.6" />
    <line x1="75" y1="13" x2="86" y2="17" stroke-width="4" />
    <line x1="75" y1="20" x2="86" y2="24" stroke-width="4" />

    <ellipse cx="100" cy="34" rx="5.8" ry="4.2" transform="rotate(-18 100 34)" />
    <line x1="105" y1="33" x2="105" y2="10" stroke-width="2.6" />
    <line x1="105" y1="13" x2="116" y2="17" stroke-width="4" />
    <line x1="105" y1="20" x2="116" y2="24" stroke-width="4" />
  </g>
</svg>
